<svg width="152" height="40" viewBox="0 0 152 40" fill="none" xmlns="http://www.w3.org/2000/svg">
    <path d="M20.4212 40C31.6995 40 40.8424 31.0457 40.8424 20C40.8424 8.95431 31.6995 0 20.4212 0C9.14288 0 0 8.95431 0 20C0 31.0457 9.14288 40 20.4212 40Z" fill="white"/>
    <path d="M20.4216 33.3817C27.9809 33.3817 34.1089 27.378 34.1089 19.9721C34.1089 12.5662 27.9809 6.5625 20.4216 6.5625C12.8624 6.5625 6.73438 12.5662 6.73438 19.9721C6.73438 27.378 12.8624 33.3817 20.4216 33.3817Z" fill="#FDB515"/>
    <path d="M29.48 18.6542C30.3028 16.6928 29.7037 14.5934 28.142 13.9651C26.5803 13.3368 24.6474 14.4174 23.8246 16.3788C23.0019 18.3402 23.601 20.4395 25.1627 21.0679C26.7244 21.6962 28.6573 20.6156 29.48 18.6542Z" fill="white"/>
    <path d="M20.454 36.5952C22.6217 36.5952 24.379 34.732 24.379 32.4336C24.379 30.1352 22.6217 28.272 20.454 28.272C18.2863 28.272 16.5291 30.1352 16.5291 32.4336C16.5291 34.732 18.2863 36.5952 20.454 36.5952Z" fill="white"/>
    <path d="M15.8129 21.0656C17.3746 20.4373 17.9737 18.338 17.1509 16.3766C16.3282 14.4152 14.3953 13.3346 12.8336 13.9629C11.2719 14.5912 10.6728 16.6906 11.4955 18.652C12.3182 20.6133 14.2512 21.694 15.8129 21.0656Z" fill="white"/>
    <path d="M27.3791 32.8727C31.6141 30.6495 34.6186 26.4645 35.1194 21.5556L37.4896 24.2226C36.1686 29.4865 32.3724 33.8022 27.3839 35.9181C27.4316 35.4977 27.4555 35.0259 27.4555 34.4888C27.4507 33.947 27.4268 33.4052 27.3791 32.8727ZM15.6472 33.8256C17.1399 34.3207 18.7328 34.5869 20.3972 34.5869C22.1332 34.5869 23.7928 34.2973 25.3428 33.7602C25.0185 35.0259 24.5129 36.1329 23.8691 37.0017C22.7484 37.2212 21.5895 37.3379 20.402 37.3379C19.286 37.3379 18.1987 37.2352 17.1399 37.0437C16.4866 36.1796 15.9763 35.0773 15.6472 33.8256ZM13.4964 32.9148C9.19466 30.6915 6.14722 26.4505 5.66554 21.4762L3.35254 24.4234C4.72603 29.6313 8.52699 33.8816 13.4964 35.9601C13.4487 35.5304 13.4248 35.0446 13.4248 34.4935C13.4248 33.961 13.4487 33.4332 13.4964 32.9148ZM32.277 11.4529L33.9557 9.09881C32.7634 7.69293 31.347 6.4692 29.7589 5.49302L26.9261 7.08573C29.0436 8.10395 30.8796 9.61259 32.277 11.4529ZM11.2263 5.37158C9.56664 6.36644 8.08346 7.62287 6.84827 9.0848L8.74159 11.1633C10.1151 9.44444 11.8796 8.03856 13.9017 7.06705L11.2263 5.37158Z" fill="#333333"/>
    <path d="M10.6588 19.9858C10.6588 15.6421 13.6204 11.9756 17.6741 10.8126C17.8554 10.3128 18.0843 9.87841 18.3418 9.52344C13.3247 10.4716 9.53809 14.7967 9.53809 19.9858C9.53809 23.6617 11.4362 26.9032 14.3262 28.8182C14.455 28.4538 14.5933 28.1035 14.7459 27.7626C12.2708 26.0297 10.6588 23.1899 10.6588 19.9858Z" fill="#333333"/>
    <path d="M12.5801 16.7912L13.4051 17.0014C14.1491 15.3199 15.4988 13.9561 17.1918 13.1854C17.2156 12.8631 17.249 12.5455 17.3015 12.2419C15.1697 13.0687 13.4624 14.7174 12.5801 16.7912Z" fill="#333333"/>
    <path d="M12.8772 21.1677H12.0283C12.3574 23.391 13.5783 25.3293 15.3285 26.6185C15.4716 26.3756 15.6194 26.142 15.7768 25.9178C14.2602 24.7782 13.1967 23.0967 12.8772 21.1677Z" fill="#333333"/>
    <path d="M27.4509 17.0293L28.2712 16.8191C27.2887 14.4791 25.2476 12.6715 22.7295 11.9756C22.7915 12.2652 22.8439 12.5688 22.8821 12.8864C24.9423 13.5683 26.602 15.0863 27.4509 17.0293Z" fill="#333333"/>
    <path d="M28.9153 18.9395L28.0282 18.0427L25.1143 18.5005L24.666 19.8129L26.0061 20.691L28.467 19.8129L28.9153 18.9395Z" fill="#333333"/>
    <path d="M12.0469 18.9395L12.9292 18.0427L15.8478 18.5005L16.2914 19.8129L14.9512 20.691L12.4952 19.8129L12.0469 18.9395Z" fill="#333333"/>
    <path d="M28.5009 22.5035C28.6392 22.0738 28.7489 21.6255 28.8156 21.1677H27.9667C27.9238 21.4246 27.8666 21.6722 27.7998 21.9197C28.0478 22.1159 28.2815 22.3074 28.5009 22.5035Z" fill="#333333"/>
    <path d="M25.8107 25.2781C25.5913 25.4883 25.3624 25.6938 25.1191 25.8759C25.2765 26.1001 25.4291 26.3337 25.5722 26.5765C25.949 26.2916 26.3019 25.9787 26.6262 25.6377C26.3591 25.5303 26.0873 25.4089 25.8107 25.2781Z" fill="#333333"/>
    <path d="M30.1837 19.9863C30.1837 21.2334 29.9357 22.4197 29.497 23.5127C29.826 23.8957 30.074 24.2647 30.2362 24.5963C30.9229 23.1997 31.3092 21.6397 31.3092 19.9863C31.3092 14.4842 27.0552 9.95825 21.5898 9.38843C21.8617 9.72005 22.1049 10.1311 22.3052 10.6028C26.7929 11.4622 30.1837 15.3342 30.1837 19.9863Z" fill="#333333"/>
    <path d="M27.9468 26.0718C27.427 26.6883 26.8261 27.2441 26.168 27.7159C26.3206 28.0522 26.4637 28.4071 26.5876 28.7714C27.6082 28.0849 28.5 27.2254 29.2297 26.2493C28.8625 26.2539 28.4285 26.1932 27.9468 26.0718Z" fill="#333333"/>
    <path d="M21.3557 18.6829C21.3462 18.6829 21.3414 18.6783 21.3366 18.6736L20.421 9.31348H19.5673L18.7852 18.739H18.7899C18.7899 18.7577 18.7852 18.7763 18.7852 18.795C18.7899 18.9538 18.8042 19.1033 18.8328 19.2481C18.8472 19.4069 18.8948 19.5704 18.9711 19.7338C19.1333 20.1449 19.3956 20.4531 19.7056 20.5979C19.7771 20.654 19.8534 20.7053 19.9297 20.7567C19.944 20.7661 19.9631 20.7754 19.9774 20.7848V20.7894L29.4774 25.9039L29.9734 25.2266L21.3557 18.6829Z" fill="#333333"/>
    <path d="M22.5675 31.4947C21.8283 31.4947 21.2035 30.9996 21.0223 30.3317L24.5371 29.0145L23.6977 26.9688L20.4214 28.2672L17.1403 26.9734L16.3057 29.0145L19.7871 30.3597C19.5963 31.0136 18.9811 31.4947 18.2514 31.4947C18.2038 31.4947 18.1513 31.49 18.1036 31.4853L17.393 32.4615C17.6601 32.5503 17.9462 32.597 18.2467 32.597C19.129 32.597 19.9111 32.1859 20.4071 31.5461C20.9031 32.1813 21.6852 32.597 22.5675 32.597C22.9013 32.597 23.2161 32.5362 23.5117 32.4288L22.8155 31.476C22.7344 31.49 22.6533 31.4947 22.5675 31.4947Z" fill="#333333"/>
    <path d="M31.357 11.9053L30.2172 13.1757C31.6098 15.0954 32.4253 17.4401 32.4253 19.9716C32.4253 24.1192 30.2315 27.767 26.917 29.8595C27.0648 30.4106 27.1841 30.9851 27.2747 31.5783C31.357 29.257 34.104 24.9272 34.104 19.9716C34.1135 16.945 33.0834 14.1519 31.357 11.9053Z" fill="#333333"/>
    <path d="M8.41786 19.9725C8.41786 17.4457 9.23337 15.1056 10.6212 13.186L9.48136 11.9155C7.75496 14.1575 6.73438 16.9506 6.73438 19.9725C6.73438 24.9608 9.51475 29.3139 13.6448 31.6213C13.7354 31.0281 13.8498 30.4536 13.9977 29.9071C10.6402 27.8193 8.41786 24.1528 8.41786 19.9725Z" fill="#333333"/>
    <path d="M20.4214 6.5625C18.3182 6.5625 16.3248 7.02957 14.5459 7.85629L15.3853 9.29487C16.9161 8.59893 18.6235 8.21126 20.4214 8.21126C22.2146 8.21126 23.9171 8.59893 25.448 9.2902L26.2874 7.85162C24.5085 7.02957 22.5198 6.5625 20.4214 6.5625Z" fill="#333333"/>
    <path d="M53.8716 28.4354H50.3902V14.6195H45.8262V11.8311H58.407V14.6195H53.8716V28.4354Z" fill="#333333"/>
    <path d="M63.2613 13.648C63.2613 14.6195 62.4982 15.3668 61.4824 15.3668C60.438 15.3668 59.6797 14.6195 59.6797 13.6247C59.6797 12.6018 60.4427 11.8591 61.4824 11.8591C62.5221 11.8591 63.2613 12.6018 63.2613 13.648ZM63.08 28.4355H59.8514V16.9128H63.08V28.4355Z" fill="#333333"/>
    <path d="M68.5315 16.8101V18.2533C69.2707 16.9829 70.2579 16.4131 71.7602 16.4131C73.2863 16.4131 74.4022 17.0857 74.965 18.3281C75.7519 17.0063 76.844 16.4131 78.5227 16.4131C79.715 16.4131 80.707 16.7867 81.3699 17.4827C82.0805 18.2533 82.3094 19.052 82.3094 20.7942V28.3374H79.0807V21.3921C79.0807 19.8227 78.4941 19.0754 77.278 19.0754C76.081 19.0754 75.399 19.9208 75.399 21.3921V28.3374H72.1703V21.4902C72.1703 19.8974 71.5599 19.0754 70.3915 19.0754C69.1706 19.0754 68.5363 19.8974 68.5363 21.4902V28.3374H65.3076V16.8101H68.5315Z" fill="#333333"/>
    <path d="M119.156 27.2066C117.806 28.4023 116.409 28.9254 114.63 28.9254C111.043 28.9254 108.401 26.3378 108.401 22.8254C108.401 19.1916 110.996 16.5994 114.654 16.5994C116.409 16.5994 117.858 17.1972 119.356 18.5144L117.196 20.4293C116.485 19.7334 115.722 19.4065 114.782 19.4065C113.004 19.4065 111.682 20.8264 111.682 22.718C111.682 24.6844 113.032 26.1043 114.911 26.1043C115.751 26.1043 116.361 25.8567 117.2 25.1328L119.156 27.2066Z" fill="#333333"/>
    <path d="M129.194 17.001H132.423V28.5283H129.194V26.9356C128.102 28.3041 126.828 28.9254 125.102 28.9254C121.797 28.9254 119.432 26.4125 119.432 22.9001C119.432 19.2663 121.921 16.604 125.355 16.604C126.957 16.604 128.049 17.1505 129.194 18.4723V17.001ZM122.889 22.8488C122.889 24.8665 124.239 26.3845 125.989 26.3845C127.792 26.3845 129.242 24.7404 129.242 22.7507C129.242 20.7096 127.921 19.2663 126.013 19.2663C124.186 19.2663 122.889 20.7329 122.889 22.8488Z" fill="#333333"/>
    <path d="M134.574 28.6361V12.0317H137.803V28.6361H134.574Z" fill="#333333"/>
    <path d="M96.1356 23.6475H86.4353C86.5736 24.4835 86.9503 25.1514 87.556 25.6465C88.1665 26.1416 88.939 26.3892 89.8833 26.3892C91.0136 26.3892 91.9817 26.0015 92.7925 25.2308L95.3391 26.4032C94.7049 27.286 93.9466 27.9352 93.0595 28.3602C92.1725 28.7806 91.1233 28.9954 89.9072 28.9954C88.0186 28.9954 86.483 28.4116 85.2955 27.2439C84.108 26.0762 83.5166 24.6143 83.5166 22.8628C83.5166 21.0646 84.108 19.5699 85.2907 18.3836C86.4734 17.1972 87.9566 16.5994 89.745 16.5994C91.6383 16.5994 93.1835 17.1925 94.371 18.3836C95.5585 19.5699 96.1499 21.1393 96.1499 23.0917L96.1356 23.6475ZM93.1168 21.3168C92.9165 20.6582 92.5254 20.1258 91.9388 19.7147C91.3522 19.3037 90.6702 19.0982 89.8929 19.0982C89.0487 19.0982 88.3095 19.3317 87.6752 19.7895C87.2746 20.079 86.9074 20.5882 86.5688 21.3168H93.1168Z" fill="#333333"/>
    <path d="M151.985 23.7554H142.285C142.423 24.5914 142.8 25.2594 143.406 25.7545C144.016 26.2495 144.789 26.4971 145.733 26.4971C146.863 26.4971 147.831 26.1094 148.642 25.3388L151.189 26.5111C150.554 27.3939 149.796 28.0431 148.909 28.4681C148.022 28.8885 146.973 29.1034 145.757 29.1034C143.868 29.1034 142.333 28.5195 141.145 27.3518C139.958 26.1842 139.366 24.7222 139.366 22.9707C139.366 21.1725 139.958 19.6778 141.14 18.4915C142.323 17.3051 143.806 16.7073 145.595 16.7073C147.488 16.7073 149.033 17.3005 150.221 18.4915C151.408 19.6778 151.999 21.2472 151.999 23.1996L151.985 23.7554ZM148.966 21.4247C148.766 20.7661 148.375 20.2337 147.788 19.8226C147.202 19.4116 146.52 19.2061 145.742 19.2061C144.898 19.2061 144.159 19.4396 143.525 19.8974C143.124 20.187 142.757 20.6961 142.418 21.4247H148.966Z" fill="#333333"/>
    <path d="M98.3051 24.9465C98.4386 25.0492 99.3114 25.6751 100.909 26.1889C101.596 26.4084 102.612 26.4504 103.384 26.3056C103.761 26.2356 104.166 26.1375 104.472 25.8993C104.605 25.7965 104.72 25.6564 104.767 25.4929C104.843 25.2267 104.729 24.9324 104.534 24.7316C104.271 24.4607 103.885 24.3252 103.522 24.2272C102.716 24.0076 101.958 23.8442 101.267 23.7087C100.485 23.5546 99.7501 23.4051 99.0872 23.0642C98.2336 22.6204 97.5897 22.13 97.2988 21.1725C97.0318 20.2944 97.213 19.1828 97.7996 18.3561C98.8631 16.8568 100.752 16.5205 101.782 16.4504C105.029 16.2402 107.39 18.2206 107.486 18.3047L105.683 20.3271L105.688 20.3318C105.673 20.3178 104.061 18.9306 102.015 19.0614C100.818 19.1408 100.361 19.5564 100.222 19.7293C100.098 19.8881 100.022 20.0702 100.036 20.229C100.065 20.5373 100.232 20.8549 101.748 21.1865C102.678 21.392 103.26 21.5135 104.281 21.8264C106.136 22.3916 107.8 23.5733 107.528 25.7218C107.223 28.1085 104.643 28.996 102.502 28.996C101.715 28.996 100.785 28.8839 100.06 28.6503C97.8187 27.931 96.7647 27.1837 96.6025 27.0623L98.3051 24.9465Z" fill="#333333"/>
</svg>
